<svg viewBox="0 0 96 96" xmlns="http://www.w3.org/2000/svg" xmlns:xlink="http://www.w3.org/1999/xlink" id="Icons_Sustainability" overflow="hidden"><path d="M67.5 63.2C67.2333 63.2086 66.9782 63.3114 66.78 63.49 62.9402 66.3586 59.2893 69.4717 55.85 72.81 54.47 74.19 53.22 75.45 52.07 76.71 50.8119 74.3346 50.1528 71.688 50.15 69 49.9771 60.3378 56.8579 53.175 65.52 53 73.59 53.21 86.39 49.54 86.39 49.54 86.39 63.62 84.91 76.16 73.15 82.97 70.8485 84.3602 68.2088 85.0902 65.52 85.08 61.8267 85.0895 58.262 83.7242 55.52 81.25 52.61 84.5 50.65 87.25 50.65 88.52L47.41 88.52C47.41 86.58 49.03 83.83 51.53 80.79 51.81 80.45 52.41 79.79 52.41 79.79L68.65 64.39C68.6833 63.7668 68.205 63.2346 67.5818 63.2014 67.5546 63.1999 67.5273 63.1995 67.5 63.2Z" stroke="none" stroke-width="1" stroke-linecap="butt" fill="#262626" fill-opacity="1"/><path d="M17.17 71.43C17.9245 72.8841 19.3684 73.853 21 74L39 74 39 82 21 82C16.4402 81.9171 12.2689 79.4143 10.05 75.43 7.92434 71.5845 8.10925 66.8769 10.53 63.21L20.93 45.21 14.07 41.21 30.81 36.73 35.29 53.47 28 49.28 17.56 67.38C16.669 68.5454 16.5178 70.116 17.17 71.43Z" stroke="none" stroke-width="1" stroke-linecap="butt" fill="#262626" fill-opacity="1"/><path d="M31.32 30.14 39.69 14.51C41.8856 10.5599 46.0607 8.12151 50.58 8.15 54.9739 8.24012 58.9557 10.7586 60.92 14.69L71.32 32.69 78.18 28.69 73.7 45.48 57 41 64.28 36.79 53.79 18.68C53.2203 17.3275 51.9346 16.4135 50.47 16.32 48.9277 16.3964 47.5317 17.2567 46.77 18.6L38.39 34.23Z" stroke="none" stroke-width="1" stroke-linecap="butt" fill="#262626" fill-opacity="1"/></svg>