<svg viewBox="0 0 96 96" xmlns="http://www.w3.org/2000/svg" xmlns:xlink="http://www.w3.org/1999/xlink" id="Icons_Scientist" overflow="hidden"><circle cx="48" cy="30" r="16" stroke="none" stroke-width="1" stroke-linecap="butt" fill="#262626" fill-opacity="1"/><path d="M30.6 81.6 24 66.7 24 56.6C24 55.4 24.7 54.2 25.7 53.6 26.3 53.3 26.5 52.6 26.2 52.1 26 51.7 25.6 51.4 25.1 51.5L13.7 51.5C13.1 51.5 12.5 51.9 12.5 52.6 12.5 53.1 12.7 53.5 13.1 53.7 14.2 54.3 14.8 55.5 14.8 56.7L14.8 66.8 8.3 81.6C7.5 83.3 8.3 85.4 10.1 86.1 10.5 86.3 11 86.4 11.5 86.4L27.5 86.4C29.4 86.4 30.9 84.9 30.9 83 30.9 82.5 30.8 82 30.6 81.6L30.6 81.6ZM17.2 58.9 17.2 56.6C17.2 55.6 17 54.6 16.4 53.7L22.5 53.7C22 54.6 21.7 55.6 21.7 56.6L21.7 58.9 17.2 58.9Z" stroke="none" stroke-width="1" stroke-linecap="butt" fill="#262626" fill-opacity="1"/><circle cx="20.6" cy="37.7" r="1.7" stroke="none" stroke-width="1" stroke-linecap="butt" fill="#262626" fill-opacity="1"/><circle cx="23.5" cy="42.9" r="1.7" stroke="none" stroke-width="1" stroke-linecap="butt" fill="#262626" fill-opacity="1"/><circle cx="17.2" cy="41.7" r="1.7" stroke="none" stroke-width="1" stroke-linecap="butt" fill="#262626" fill-opacity="1"/><circle cx="18.3" cy="48" r="2.3" stroke="none" stroke-width="1" stroke-linecap="butt" fill="#262626" fill-opacity="1"/><path d="M43 72.9 35.8 65.3 39.8 60.3 39.8 60.2 33.7 60.8 33.9 52.3C31.5 53.1 29.1 54 26.8 55.1 26.4 55.5 26.1 56.1 26 56.7L26 66.3 32.4 80.8C32.6 81.2 32.7 81.6 32.8 82L43 82 43 72.9Z" stroke="none" stroke-width="1" stroke-linecap="butt" fill="#262626" fill-opacity="1"/><path d="M45 72 45 82 51 82 51 72 58.2 51.2C54.8 50.4 51.4 50 48 50 44.6 50 41.2 50.4 37.9 51.2L45 72Z" stroke="none" stroke-width="1" stroke-linecap="butt" fill="#262626" fill-opacity="1"/><path d="M76.8 59.6C72.4 56.2 67.4 53.8 62.1 52.3L62.3 60.8 56.2 60.2 56.2 60.3 60.2 65.3 53 72.9 53 82 80 82 80 66C79.9 63.5 78.8 61.1 76.8 59.6Z" stroke="none" stroke-width="1" stroke-linecap="butt" fill="#262626" fill-opacity="1"/></svg>