<svg viewBox="0 0 96 96" xmlns="http://www.w3.org/2000/svg" xmlns:xlink="http://www.w3.org/1999/xlink" id="Icons_LighthouseScene" overflow="hidden"><path d="M41.33 38 54.77 38 53.56 18 55 18 55 15 53 15 53 10 54 10 54 9 49 7.56 49 6C49.0208 5.5464 48.7333 5.13575 48.3 5L47.7 5C47.2667 5.13575 46.9792 5.5464 47 6L47 7.56 42 9 42 10 43 10 43 15 41 15 41 18 42.44 18Z" stroke="none" stroke-width="1" stroke-linecap="butt" fill="#262626" fill-opacity="1"/><rect x="60" y="12" width="10" height="2" stroke="none" stroke-width="1" stroke-linecap="butt" fill="#262626" fill-opacity="1" transform="matrix(-1 -1.22465e-16 1.22465e-16 -1 130 26)"/><rect x="59" y="5.84" width="10" height="2" stroke="none" stroke-width="1" stroke-linecap="butt" fill="#262626" fill-opacity="1" transform="matrix(-0.92388 0.382683 -0.382683 -0.92388 125.74 -11.34)"/><rect x="59" y="18.16" width="10" height="2" stroke="none" stroke-width="1" stroke-linecap="butt" fill="#262626" fill-opacity="1" transform="matrix(-0.92388 -0.382683 0.382683 -0.92388 115.8 61.36)"/><rect x="26" y="12" width="10" height="2" stroke="none" stroke-width="1" stroke-linecap="butt" fill="#262626" fill-opacity="1"/><rect x="27" y="5.84" width="10" height="2" stroke="none" stroke-width="1" stroke-linecap="butt" fill="#262626" fill-opacity="1" transform="matrix(0.92388 0.382683 -0.382683 0.92388 5.05 -11.73)"/><rect x="27" y="18.16" width="10" height="2" stroke="none" stroke-width="1" stroke-linecap="butt" fill="#262626" fill-opacity="1" transform="matrix(0.92388 -0.382683 0.382683 0.92388 -4.9 13.7)"/><path d="M84.05 85.28C82.1366 84.5192 80.1076 84.0897 78.05 84.01L78.05 84.01C75.9927 84.0917 73.964 84.5211 72.05 85.28 70.7777 85.812 69.4261 86.1296 68.05 86.22L68.05 86.22C66.6743 86.1273 65.323 85.8097 64.05 85.28 62.1366 84.5192 60.1076 84.0897 58.05 84.01L58.05 84.01C55.9927 84.0917 53.964 84.5211 52.05 85.28 50.7777 85.812 49.4261 86.1296 48.05 86.22 46.6743 86.1273 45.323 85.8097 44.05 85.28 42.1366 84.5192 40.1076 84.0897 38.05 84.01L38.05 84.01C35.9927 84.0917 33.964 84.5211 32.05 85.28 30.7777 85.812 29.4261 86.1296 28.05 86.22 26.6743 86.1273 25.323 85.8097 24.05 85.28 22.1366 84.5192 20.1076 84.0897 18.05 84.01L18.05 84.01C15.9927 84.0917 13.964 84.5211 12.05 85.28 10.7777 85.812 9.42608 86.1296 8.05 86.22L8.05 92.22C10.1088 92.15 12.1394 91.7202 14.05 90.95 15.3212 90.4045 16.6717 90.0669 18.05 89.95 19.4287 90.0646 20.7796 90.4024 22.05 90.95 23.9612 91.7183 25.9915 92.148 28.05 92.22L28.05 92.22C30.1088 92.15 32.1394 91.7202 34.05 90.95 35.3212 90.4045 36.6717 90.0669 38.05 89.95 39.4247 90.0493 40.7749 90.3666 42.05 90.89 43.962 91.6569 45.9915 92.0898 48.05 92.17 50.1088 92.1001 52.1394 91.6702 54.05 90.9 55.3212 90.3545 56.6717 90.0169 58.05 89.9 59.4287 90.0146 60.7796 90.3524 62.05 90.9 63.9612 91.6683 65.9915 92.098 68.05 92.17L68.05 92.17C70.1088 92.1 72.1394 91.6702 74.05 90.9 75.3212 90.3545 76.6717 90.0169 78.05 89.9 79.4247 89.9993 80.7749 90.3166 82.05 90.84 83.9601 91.6133 85.9907 92.0465 88.05 92.12L88.05 86.12C86.6791 86.0658 85.3269 85.7819 84.05 85.28Z" stroke="none" stroke-width="1" stroke-linecap="butt" fill="#262626" fill-opacity="1"/><path d="M66 53C62.88 52.19 59.29 52.84 55.74 53.84L55 41 41.17 41 40.17 58.33C39.359 58.7725 38.5712 59.2565 37.81 59.78 37.3771 58.2139 36.375 56.8658 35 56 32.21 54.19 22.17 59.36 20 60.88 18.6774 62.1115 17.5926 63.5759 16.8 65.2 17.22 65.2 17.65 65.11 18.07 65.09 20.1276 65.1697 22.1566 65.5992 24.07 66.36 25.343 66.8897 26.6943 67.2073 28.07 67.3 29.4461 67.2096 30.7977 66.892 32.07 66.36 33.984 65.6011 36.0127 65.1716 38.07 65.09 40.1276 65.1697 42.1566 65.5992 44.07 66.36 45.343 66.8897 46.6943 67.2073 48.07 67.3 49.4461 67.2096 50.7977 66.892 52.07 66.36 53.984 65.6011 56.0127 65.1716 58.07 65.09 60.1276 65.1697 62.1566 65.5992 64.07 66.36 65.343 66.8897 66.6943 67.2073 68.07 67.3 69.4461 67.2096 70.7977 66.892 72.07 66.36 73.984 65.6011 76.0127 65.1716 78.07 65.09 78.8854 65.1278 79.6973 65.2214 80.5 65.37 77.61 61.76 71.18 54.35 66 53Z" stroke="none" stroke-width="1" stroke-linecap="butt" fill="#262626" fill-opacity="1"/><path d="M84.05 73.28C82.1366 72.5192 80.1076 72.0897 78.05 72.01L78.05 72.01C75.9927 72.0917 73.964 72.5211 72.05 73.28 70.7777 73.812 69.4261 74.1296 68.05 74.22L68.05 74.22C66.6743 74.1273 65.323 73.8097 64.05 73.28 62.1366 72.5192 60.1076 72.0897 58.05 72.01L58.05 72.01C55.9927 72.0917 53.964 72.5211 52.05 73.28 50.7777 73.812 49.4261 74.1296 48.05 74.22 46.6743 74.1273 45.323 73.8097 44.05 73.28 42.1366 72.5192 40.1076 72.0897 38.05 72.01L38.05 72.01C35.9927 72.0917 33.964 72.5211 32.05 73.28 30.7777 73.812 29.4261 74.1296 28.05 74.22 26.6743 74.1273 25.323 73.8097 24.05 73.28 22.1366 72.5192 20.1076 72.0897 18.05 72.01L18.05 72.01C15.9927 72.0917 13.964 72.5211 12.05 73.28 10.7777 73.812 9.42608 74.1296 8.05 74.22L8.05 80.22C10.1088 80.15 12.1394 79.7202 14.05 78.95 15.3212 78.4045 16.6717 78.0669 18.05 77.95 19.4287 78.0646 20.7796 78.4024 22.05 78.95 23.9612 79.7183 25.9915 80.148 28.05 80.22L28.05 80.22C30.1088 80.15 32.1394 79.7202 34.05 78.95 35.3212 78.4045 36.6717 78.0669 38.05 77.95 39.4247 78.0493 40.7749 78.3666 42.05 78.89 43.962 79.6569 45.9915 80.0898 48.05 80.17 50.1088 80.1001 52.1394 79.6702 54.05 78.9 55.3212 78.3545 56.6717 78.0169 58.05 77.9 59.4287 78.0146 60.7796 78.3524 62.05 78.9 63.9612 79.6683 65.9915 80.098 68.05 80.17L68.05 80.17C70.1088 80.1 72.1394 79.6702 74.05 78.9 75.3212 78.3545 76.6717 78.0169 78.05 77.9 79.4247 77.9993 80.7749 78.3166 82.05 78.84 83.9601 79.6133 85.9907 80.0465 88.05 80.12L88.05 74.12C86.6791 74.0658 85.3269 73.7819 84.05 73.28Z" stroke="none" stroke-width="1" stroke-linecap="butt" fill="#262626" fill-opacity="1"/></svg>